# xmcd
#
# Track frame offsets:
#	150
#	36510
#	61585
#	83523
#	111060
#	134448
#	169121
#	193996
#	217958
#	235746
#	268584
#	289087
#	305547
#
# Disc length: 4358 seconds
#
# Revision: 1
# Processed by: cddbd v1.5.2PL0 Copyright (c) Steve Scherf et al.
# Submitted via: audiograbber 1.83.01
#
DISCID=b611040d
DTITLE=Eagles - Take It Easy - Live In The USA CD08
DYEAR=1900
DGENRE=Rock
TTITLE0=You Belong To The City
TTITLE1=The Boys of Summer
TTITLE2=Funk #49
TTITLE3=Dirty Laundry
TTITLE4=Smugglers Blues
TTITLE5=Lifes Been Good
TTITLE6=Heartache Tonight
TTITLE7=Life In the Fast Lane
TTITLE8=Get Over It
TTITLE9=Rocky Mountain Way
TTITLE10=Already Gone
TTITLE11=Desperado
TTITLE12=Take It Easy
EXTD=
EXTT0=
EXTT1=
EXTT2=
EXTT3=
EXTT4=
EXTT5=
EXTT6=
EXTT7=
EXTT8=
EXTT9=
EXTT10=
EXTT11=
EXTT12=
PLAYORDER=
